<svg width="16" height="17" viewBox="0 0 16 17" fill="none" xmlns="http://www.w3.org/2000/svg">
<path d="M12 11.4359C11.9071 11.4359 11.8161 11.41 11.7371 11.3612C11.6581 11.3124 11.5943 11.2425 11.5528 11.1595C11.5113 11.0764 11.4937 10.9835 11.502 10.891C11.5104 10.7985 11.5443 10.7102 11.6 10.6359C12.1097 9.9521 12.385 9.12205 12.385 8.26921C12.385 7.41637 12.1097 6.58632 11.6 5.90254C11.5204 5.79645 11.4863 5.66311 11.505 5.53183C11.5238 5.40055 11.5939 5.28211 11.7 5.20254C11.8061 5.12298 11.9394 5.08881 12.0707 5.10757C12.202 5.12632 12.3204 5.19645 12.4 5.30254C13.7067 7.04921 13.7067 9.48921 12.4 11.2359C12.3 11.3692 12.1533 11.4359 12 11.4359Z" fill="#E85F5F"/>
<path d="M13.2187 13.1032C13.1258 13.1032 13.0348 13.0773 12.9558 13.0285C12.8768 12.9797 12.813 12.9099 12.7715 12.8268C12.73 12.7437 12.7124 12.6508 12.7207 12.5583C12.7291 12.4658 12.763 12.3775 12.8187 12.3032C14.5987 9.92986 14.5987 6.60986 12.8187 4.23653C12.7391 4.13044 12.705 3.99709 12.7237 3.86581C12.7425 3.73454 12.8126 3.61609 12.9187 3.53653C13.0248 3.45696 13.1581 3.4228 13.2894 3.44155C13.4207 3.4603 13.5391 3.53044 13.6187 3.63653C15.6654 6.36319 15.6654 10.1765 13.6187 12.9032C13.5254 13.0365 13.372 13.1032 13.2187 13.1032Z" fill="#E85F5F"/>
<path d="M10.5003 5.21065V11.3306C10.5003 12.4773 10.087 13.3373 9.34699 13.7507C9.04683 13.9154 8.70939 14.0003 8.36699 13.9973C7.83366 13.9973 7.26033 13.8173 6.67366 13.4506L4.72699 12.2306C4.59366 12.1506 4.44033 12.104 4.28699 12.104H3.66699V4.43732H4.28699C4.44033 4.43732 4.59366 4.39065 4.72699 4.31065L6.67366 3.09065C7.64699 2.48398 8.60033 2.37732 9.34699 2.79065C10.087 3.20398 10.5003 4.06398 10.5003 5.21065Z" fill="#FFC1C1"/>
<path d="M3.66634 4.43555V12.1022H3.33301C1.71967 12.1022 0.833008 11.2155 0.833008 9.60221V6.93555C0.833008 5.32221 1.71967 4.43555 3.33301 4.43555H3.66634Z" fill="#E85F5F"/>
</svg>
