<svg width="24" height="25" viewBox="0 0 24 25" fill="none" xmlns="http://www.w3.org/2000/svg">
<path d="M20.4 16.6892C20.12 17.4392 19.53 18.0092 18.76 18.2692C17.68 18.6292 16.57 18.8992 15.45 19.0892C15.34 19.1092 15.23 19.1292 15.12 19.1392C14.94 19.1692 14.76 19.1892 14.58 19.2092C14.36 19.2392 14.13 19.2592 13.9 19.2792C13.27 19.3292 12.65 19.3592 12.02 19.3592C11.38 19.3592 10.74 19.3292 10.11 19.2692C9.83999 19.2492 9.57999 19.2192 9.31999 19.1792L8.87999 19.1192C8.76999 19.0992 8.65999 19.0892 8.54999 19.0692C7.43999 18.8892 6.33999 18.6192 5.26999 18.2592C4.46999 17.9892 3.85999 17.4192 3.58999 16.6892C3.31999 15.9692 3.41999 15.1292 3.84999 14.4092L4.97999 12.5292C5.21999 12.1192 5.43999 11.3292 5.43999 10.8492V8.98918C5.43999 5.35918 8.38999 2.40918 12.02 2.40918C15.64 2.40918 18.59 5.35918 18.59 8.98918V10.8492C18.59 11.3292 18.81 12.1192 19.06 12.5292L20.19 14.4092C20.6 15.1092 20.68 15.9292 20.4 16.6892Z" fill="#E85F5F"/>
<path d="M11.9997 11.12C11.7981 11.12 11.6048 11.0399 11.4623 10.8974C11.3198 10.7549 11.2397 10.5616 11.2397 10.36V7.26C11.2397 7.05844 11.3198 6.86513 11.4623 6.7226C11.6048 6.58007 11.7981 6.5 11.9997 6.5C12.2013 6.5 12.3946 6.58007 12.5371 6.7226C12.6796 6.86513 12.7597 7.05844 12.7597 7.26V10.36C12.7497 10.78 12.4097 11.12 11.9997 11.12ZM14.8297 20.37C14.6194 20.9522 14.235 21.4554 13.7286 21.8115C13.2223 22.1675 12.6187 22.359 11.9997 22.36C11.2097 22.36 10.4297 22.04 9.87969 21.47C9.55969 21.17 9.31969 20.77 9.17969 20.36C9.30969 20.38 9.43969 20.39 9.57969 20.41C9.80969 20.44 10.0497 20.47 10.2897 20.49C10.8597 20.54 11.4397 20.57 12.0197 20.57C12.5897 20.57 13.1597 20.54 13.7197 20.49C13.9297 20.47 14.1397 20.46 14.3397 20.43L14.8297 20.37Z" fill="#FFC1C1"/>
</svg>
