<svg xmlns:xlink="http://www.w3.org/1999/xlink" width="25" height="24" viewBox="0 0 25 24" fill="none" xmlns="http://www.w3.org/2000/svg"><path d="M8.63402 21.245C9.25901 20.6188 9.65224 19.7984 9.74901 18.919C9.81531 18.3392 9.74944 17.7518 9.55633 17.2011C9.36322 16.6503 9.0479 16.1505 8.63402 15.739C8.13458 15.2374 7.50547 14.8846 6.81702 14.72C6.16634 14.5548 5.48386 14.562 4.83681 14.7409C4.18977 14.9197 3.60048 15.2641 3.12702 15.74C2.45601 16.4045 2.05639 17.295 2.00602 18.238C1.97102 18.63 2.00602 19.036 2.10902 19.428C2.26702 20.096 2.61102 20.729 3.12702 21.245C3.48854 21.6067 3.91779 21.8937 4.39025 22.0894C4.86271 22.2852 5.3691 22.386 5.88052 22.386C6.39193 22.386 6.89833 22.2852 7.37078 22.0894C7.84324 21.8937 8.27249 21.6067 8.63402 21.245ZM7.34002 17.776C7.73902 17.776 8.07002 18.106 8.07002 18.506C8.06742 18.7006 7.98891 18.8864 7.85122 19.0239C7.71354 19.1614 7.52758 19.2397 7.33302 19.242L6.61002 19.235L6.61702 19.931C6.61443 20.1254 6.53605 20.3111 6.39858 20.4486C6.26111 20.586 6.07541 20.6644 5.88102 20.667C5.68645 20.6647 5.50049 20.5864 5.36281 20.4489C5.22512 20.3114 5.14661 20.1256 5.14402 19.931L5.15102 19.235L4.42802 19.242C4.23362 19.2394 4.04792 19.161 3.91045 19.0236C3.77298 18.8861 3.6946 18.7004 3.69202 18.506C3.69803 18.3143 3.77687 18.1321 3.91249 17.9965C4.04811 17.8608 4.23031 17.782 4.42202 17.776H5.15102V17.019C5.15102 16.813 5.23401 16.634 5.36402 16.503C5.49502 16.373 5.67402 16.29 5.88102 16.29C6.28002 16.29 6.61102 16.62 6.61102 17.02V17.776H7.34002ZM15.47 3.845V7.545H14.01V3.845C14.01 3.583 13.777 3.456 13.62 3.456C13.5702 3.45667 13.521 3.46685 13.475 3.486L5.75502 6.395C5.50422 6.48944 5.28848 6.65863 5.13699 6.87969C4.98551 7.10076 4.90557 7.36302 4.90802 7.631V8.283C4.45389 8.62222 4.08537 9.06293 3.83187 9.56992C3.57837 10.0769 3.44692 10.6362 3.44802 11.203V7.632C3.44802 6.474 4.15802 5.442 5.23902 5.033L12.968 2.113C13.2481 2.0085 13.5493 1.9733 13.846 2.01038C14.1426 2.04746 14.4259 2.15573 14.6717 2.32596C14.9174 2.49619 15.1184 2.72332 15.2574 2.988C15.3964 3.25267 15.4694 3.54604 15.47 3.845ZM21.945 14.116V15.089C21.9453 15.2167 21.8953 15.3394 21.8059 15.4305C21.7164 15.5216 21.5947 15.5739 21.467 15.576H20.046C19.53 15.576 19.063 15.196 19.024 14.69C19.0107 14.5474 19.0291 14.4036 19.0779 14.2689C19.1266 14.1343 19.2045 14.012 19.306 13.911C19.3943 13.8197 19.5003 13.7475 19.6177 13.699C19.735 13.6505 19.8611 13.6267 19.988 13.629H21.458C21.74 13.639 21.945 13.853 21.945 14.116Z" fill="url(&quot;#paint0_linear_4247_28324&quot;)"></path><path d="M19.977 12.604H20.97C21.2278 12.6032 21.4749 12.5004 21.6572 12.3181C21.8395 12.1358 21.9422 11.8888 21.943 11.631V11.203C21.9409 10.233 21.5546 9.30324 20.8687 8.61732C20.1828 7.93139 19.2531 7.54511 18.283 7.543H7.10902C6.28202 7.543 5.52202 7.816 4.90902 8.283C4.45489 8.62222 4.08537 9.06293 3.83187 9.56992C3.57837 10.0769 3.44692 10.6362 3.44802 11.203L3.44902 12.935C3.44902 13.305 3.83902 13.539 4.18902 13.422C4.73452 13.2362 5.30675 13.141 5.88302 13.14C7.30191 13.1426 8.66193 13.7075 9.66524 14.7108C10.6685 15.7141 11.2334 17.0741 11.236 18.493C11.236 19.194 11.051 19.963 10.759 20.644C10.603 20.994 10.847 21.414 11.226 21.414H18.283C19.2531 21.4119 20.1828 21.0256 20.8687 20.3397C21.5546 19.6537 21.9409 18.724 21.943 17.754V17.569C21.9425 17.311 21.8398 17.0637 21.6575 16.8812C21.4752 16.6987 21.228 16.5958 20.97 16.595H20.123C19.189 16.595 18.293 16.021 18.05 15.115C17.9568 14.7762 17.9563 14.4186 18.0487 14.0796C18.141 13.7406 18.3228 13.4326 18.575 13.188C18.7574 13.0014 18.9756 12.8534 19.2165 12.7531C19.4574 12.6527 19.7161 12.602 19.977 12.604ZM14.643 12.41H9.77501C9.37601 12.41 9.04502 12.079 9.04502 11.68C9.04502 11.28 9.37601 10.95 9.77501 10.95H14.642C15.041 10.95 15.372 11.28 15.372 11.68C15.372 12.079 15.042 12.41 14.643 12.41Z" fill="url(&quot;#paint1_linear_4247_28324&quot;)"></path><defs><linearGradient id="paint0_linear_4247_28324" x1="11.9689" y1="1.99606" x2="11.9689" y2="22.386" gradientUnits="userSpaceOnUse"><stop stop-color="var(--footer-icon-inactive1)"></stop><stop offset="1" stop-color="var(--footer-icon-inactive2)"></stop></linearGradient><linearGradient id="paint1_linear_4247_28324" x1="11.9689" y1="1.99606" x2="11.9689" y2="22.386" gradientUnits="userSpaceOnUse"><stop stop-color="var(--footer-icon-inactive1)"></stop><stop offset="1" stop-color="var(--footer-icon-inactive2)"></stop></linearGradient><linearGradient id="paint0_linear_4247_28324" x1="11.9689" y1="1.99606" x2="11.9689" y2="22.386" gradientUnits="userSpaceOnUse"><stop stop-color="var(--footer-icon-inactive1)"></stop><stop offset="1" stop-color="var(--footer-icon-inactive2)"></stop></linearGradient><linearGradient id="paint1_linear_4247_28324" x1="11.9689" y1="1.99606" x2="11.9689" y2="22.386" gradientUnits="userSpaceOnUse"><stop stop-color="var(--footer-icon-inactive1)"></stop><stop offset="1" stop-color="var(--footer-icon-inactive2)"></stop></linearGradient></defs></svg>